<mxfile host="app.diagrams.net" modified="2023-11-12T06:22:45.164Z" agent="Mozilla/5.0 (Windows NT 10.0; Win64; x64) AppleWebKit/537.36 (KHTML, like Gecko) Chrome/119.0.0.0 Safari/537.36" etag="wFWGrY_t2gC6wi5ZnqOp" version="22.1.0" type="device">
  <diagram name="PÃ¡gina-1" id="eeE2O9nSnGnEqgiIOiGK">
    <mxGraphModel dx="3802" dy="2474" grid="1" gridSize="10" guides="1" tooltips="1" connect="1" arrows="1" fold="1" page="1" pageScale="1" pageWidth="827" pageHeight="1169" math="0" shadow="0">
      <root>
        <mxCell id="0" />
        <mxCell id="1" parent="0" />
        <mxCell id="kG2L2xWDp4zw-5RFXqIC-48" value="" style="edgeStyle=orthogonalEdgeStyle;rounded=0;orthogonalLoop=1;jettySize=auto;html=1;endArrow=none;endFill=0;" parent="1" source="kG2L2xWDp4zw-5RFXqIC-2" target="kG2L2xWDp4zw-5RFXqIC-47" edge="1">
          <mxGeometry relative="1" as="geometry" />
        </mxCell>
        <mxCell id="m62q8-EZePNYTG0ktoij-118" value="" style="edgeStyle=orthogonalEdgeStyle;rounded=0;orthogonalLoop=1;jettySize=auto;html=1;endArrow=none;endFill=0;" edge="1" parent="1" source="kG2L2xWDp4zw-5RFXqIC-2" target="m62q8-EZePNYTG0ktoij-116">
          <mxGeometry relative="1" as="geometry" />
        </mxCell>
        <mxCell id="kG2L2xWDp4zw-5RFXqIC-2" value="school_type" style="rounded=0;whiteSpace=wrap;html=1;fontSize=16;" parent="1" vertex="1">
          <mxGeometry x="-750" y="35" width="120" height="60" as="geometry" />
        </mxCell>
        <mxCell id="kG2L2xWDp4zw-5RFXqIC-3" value="school_name&#x9;" style="ellipse;whiteSpace=wrap;html=1;rounded=0;fontSize=16;" parent="1" vertex="1">
          <mxGeometry x="-240" y="75" width="145" height="40" as="geometry" />
        </mxCell>
        <mxCell id="kG2L2xWDp4zw-5RFXqIC-6" value="&lt;u&gt;nces_school_id&lt;span style=&quot;white-space: pre;&quot;&gt;&amp;nbsp;&amp;nbsp;&amp;nbsp;&amp;nbsp;&lt;/span&gt;&lt;/u&gt;" style="ellipse;whiteSpace=wrap;html=1;rounded=0;fontSize=16;" parent="1" vertex="1">
          <mxGeometry x="-260" y="-32.5" width="155" height="50" as="geometry" />
        </mxCell>
        <mxCell id="kG2L2xWDp4zw-5RFXqIC-33" value="" style="rounded=0;orthogonalLoop=1;jettySize=auto;html=1;edgeStyle=orthogonalEdgeStyle;endArrow=none;endFill=0;" parent="1" source="kG2L2xWDp4zw-5RFXqIC-30" target="kG2L2xWDp4zw-5RFXqIC-32" edge="1">
          <mxGeometry relative="1" as="geometry">
            <Array as="points">
              <mxPoint x="-500" y="335" />
              <mxPoint x="-890" y="335" />
            </Array>
          </mxGeometry>
        </mxCell>
        <mxCell id="kG2L2xWDp4zw-5RFXqIC-38" value="" style="rounded=0;orthogonalLoop=1;jettySize=auto;html=1;edgeStyle=orthogonalEdgeStyle;endArrow=none;endFill=0;" parent="1" source="kG2L2xWDp4zw-5RFXqIC-30" target="kG2L2xWDp4zw-5RFXqIC-37" edge="1">
          <mxGeometry relative="1" as="geometry">
            <Array as="points">
              <mxPoint x="-500" y="335" />
              <mxPoint x="-790" y="335" />
            </Array>
          </mxGeometry>
        </mxCell>
        <mxCell id="kG2L2xWDp4zw-5RFXqIC-40" value="" style="rounded=0;orthogonalLoop=1;jettySize=auto;html=1;edgeStyle=orthogonalEdgeStyle;endArrow=none;endFill=0;" parent="1" source="kG2L2xWDp4zw-5RFXqIC-30" target="kG2L2xWDp4zw-5RFXqIC-39" edge="1">
          <mxGeometry relative="1" as="geometry">
            <Array as="points">
              <mxPoint x="-500" y="335" />
              <mxPoint x="-600" y="335" />
            </Array>
          </mxGeometry>
        </mxCell>
        <mxCell id="kG2L2xWDp4zw-5RFXqIC-42" value="" style="rounded=0;orthogonalLoop=1;jettySize=auto;html=1;edgeStyle=orthogonalEdgeStyle;endArrow=none;endFill=0;" parent="1" source="kG2L2xWDp4zw-5RFXqIC-30" target="kG2L2xWDp4zw-5RFXqIC-41" edge="1">
          <mxGeometry relative="1" as="geometry" />
        </mxCell>
        <mxCell id="kG2L2xWDp4zw-5RFXqIC-44" value="" style="rounded=0;orthogonalLoop=1;jettySize=auto;html=1;exitX=0.5;exitY=1;exitDx=0;exitDy=0;edgeStyle=orthogonalEdgeStyle;endArrow=none;endFill=0;" parent="1" source="kG2L2xWDp4zw-5RFXqIC-30" target="kG2L2xWDp4zw-5RFXqIC-43" edge="1">
          <mxGeometry relative="1" as="geometry">
            <Array as="points">
              <mxPoint x="-500" y="335" />
              <mxPoint x="-410" y="335" />
            </Array>
          </mxGeometry>
        </mxCell>
        <mxCell id="kG2L2xWDp4zw-5RFXqIC-46" value="" style="rounded=0;orthogonalLoop=1;jettySize=auto;html=1;exitX=0.5;exitY=1;exitDx=0;exitDy=0;edgeStyle=orthogonalEdgeStyle;endArrow=none;endFill=0;" parent="1" source="kG2L2xWDp4zw-5RFXqIC-30" target="kG2L2xWDp4zw-5RFXqIC-45" edge="1">
          <mxGeometry relative="1" as="geometry" />
        </mxCell>
        <mxCell id="m62q8-EZePNYTG0ktoij-121" value="" style="edgeStyle=orthogonalEdgeStyle;rounded=0;orthogonalLoop=1;jettySize=auto;html=1;endArrow=none;endFill=0;" edge="1" parent="1" source="kG2L2xWDp4zw-5RFXqIC-30" target="kG2L2xWDp4zw-5RFXqIC-47">
          <mxGeometry relative="1" as="geometry" />
        </mxCell>
        <mxCell id="kG2L2xWDp4zw-5RFXqIC-30" value="SchoolEthnicity&#x9;" style="whiteSpace=wrap;html=1;rounded=0;fontSize=17;" parent="1" vertex="1">
          <mxGeometry x="-565" y="225" width="130" height="40" as="geometry" />
        </mxCell>
        <mxCell id="kG2L2xWDp4zw-5RFXqIC-32" value="White" style="ellipse;whiteSpace=wrap;html=1;rounded=0;fontSize=16;" parent="1" vertex="1">
          <mxGeometry x="-930" y="400" width="80" height="40" as="geometry" />
        </mxCell>
        <mxCell id="kG2L2xWDp4zw-5RFXqIC-34" value="" style="rounded=0;orthogonalLoop=1;jettySize=auto;html=1;edgeStyle=orthogonalEdgeStyle;exitX=0.5;exitY=1;exitDx=0;exitDy=0;endArrow=none;endFill=0;" parent="1" source="kG2L2xWDp4zw-5RFXqIC-30" target="kG2L2xWDp4zw-5RFXqIC-35" edge="1">
          <mxGeometry relative="1" as="geometry">
            <mxPoint x="-650" y="285" as="sourcePoint" />
            <Array as="points">
              <mxPoint x="-500" y="335" />
              <mxPoint x="-695" y="335" />
            </Array>
          </mxGeometry>
        </mxCell>
        <mxCell id="kG2L2xWDp4zw-5RFXqIC-35" value="Black" style="ellipse;whiteSpace=wrap;html=1;rounded=0;fontSize=16;" parent="1" vertex="1">
          <mxGeometry x="-735" y="407.5" width="80" height="40" as="geometry" />
        </mxCell>
        <mxCell id="kG2L2xWDp4zw-5RFXqIC-37" value="Hispanic" style="ellipse;whiteSpace=wrap;html=1;rounded=0;fontSize=16;" parent="1" vertex="1">
          <mxGeometry x="-830" y="405" width="80" height="40" as="geometry" />
        </mxCell>
        <mxCell id="kG2L2xWDp4zw-5RFXqIC-39" value="Asian" style="ellipse;whiteSpace=wrap;html=1;rounded=0;fontSize=16;" parent="1" vertex="1">
          <mxGeometry x="-640" y="410" width="80" height="35" as="geometry" />
        </mxCell>
        <mxCell id="kG2L2xWDp4zw-5RFXqIC-41" value="American Indian" style="ellipse;whiteSpace=wrap;html=1;rounded=0;fontSize=16;" parent="1" vertex="1">
          <mxGeometry x="-545" y="407.5" width="90" height="57.5" as="geometry" />
        </mxCell>
        <mxCell id="kG2L2xWDp4zw-5RFXqIC-43" value="Hawaiian" style="ellipse;whiteSpace=wrap;html=1;rounded=0;fontSize=16;" parent="1" vertex="1">
          <mxGeometry x="-450" y="415" width="90" height="40" as="geometry" />
        </mxCell>
        <mxCell id="kG2L2xWDp4zw-5RFXqIC-45" value="Two or more" style="ellipse;whiteSpace=wrap;html=1;rounded=0;fontSize=16;" parent="1" vertex="1">
          <mxGeometry x="-355" y="407.5" width="80" height="57.5" as="geometry" />
        </mxCell>
        <mxCell id="m62q8-EZePNYTG0ktoij-111" value="" style="edgeStyle=orthogonalEdgeStyle;rounded=0;orthogonalLoop=1;jettySize=auto;html=1;endArrow=none;endFill=0;" edge="1" parent="1" source="kG2L2xWDp4zw-5RFXqIC-47" target="m62q8-EZePNYTG0ktoij-44">
          <mxGeometry relative="1" as="geometry" />
        </mxCell>
        <mxCell id="m62q8-EZePNYTG0ktoij-123" value="" style="edgeStyle=orthogonalEdgeStyle;rounded=0;orthogonalLoop=1;jettySize=auto;html=1;entryX=0;entryY=0.5;entryDx=0;entryDy=0;endArrow=none;endFill=0;" edge="1" parent="1" source="kG2L2xWDp4zw-5RFXqIC-47" target="kG2L2xWDp4zw-5RFXqIC-6">
          <mxGeometry relative="1" as="geometry">
            <mxPoint x="-295" y="65" as="targetPoint" />
            <Array as="points">
              <mxPoint x="-310" y="65" />
              <mxPoint x="-310" y="-7" />
            </Array>
          </mxGeometry>
        </mxCell>
        <mxCell id="kG2L2xWDp4zw-5RFXqIC-47" value="School_info" style="rhombus;whiteSpace=wrap;html=1;rounded=0;fontSize=16;" parent="1" vertex="1">
          <mxGeometry x="-545" y="10" width="170" height="110" as="geometry" />
        </mxCell>
        <mxCell id="m62q8-EZePNYTG0ktoij-40" value="" style="edgeStyle=orthogonalEdgeStyle;rounded=0;orthogonalLoop=1;jettySize=auto;html=1;endArrow=none;endFill=0;" edge="1" parent="1" source="kG2L2xWDp4zw-5RFXqIC-51" target="kG2L2xWDp4zw-5RFXqIC-66">
          <mxGeometry relative="1" as="geometry" />
        </mxCell>
        <mxCell id="kG2L2xWDp4zw-5RFXqIC-51" value="district_info" style="rhombus;whiteSpace=wrap;html=1;rounded=0;fontSize=16;" parent="1" vertex="1">
          <mxGeometry x="-245" y="-649" width="150" height="130" as="geometry" />
        </mxCell>
        <mxCell id="kG2L2xWDp4zw-5RFXqIC-66" value="&lt;u&gt;uid&lt;/u&gt;" style="ellipse;whiteSpace=wrap;html=1;rounded=0;fontSize=16;" parent="1" vertex="1">
          <mxGeometry x="-212.5" y="-740" width="85" height="40" as="geometry" />
        </mxCell>
        <mxCell id="kG2L2xWDp4zw-5RFXqIC-108" value="time" style="ellipse;whiteSpace=wrap;html=1;rounded=0;fontSize=16;" parent="1" vertex="1">
          <mxGeometry x="320" y="-564" width="75" height="40" as="geometry" />
        </mxCell>
        <mxCell id="kG2L2xWDp4zw-5RFXqIC-109" value="date" style="ellipse;whiteSpace=wrap;html=1;rounded=0;fontSize=16;" parent="1" vertex="1">
          <mxGeometry x="220" y="-567.5" width="85" height="40" as="geometry" />
        </mxCell>
        <mxCell id="m62q8-EZePNYTG0ktoij-223" value="" style="edgeStyle=orthogonalEdgeStyle;rounded=0;orthogonalLoop=1;jettySize=auto;html=1;entryX=0;entryY=0.5;entryDx=0;entryDy=0;endArrow=none;endFill=0;" edge="1" parent="1" source="kG2L2xWDp4zw-5RFXqIC-110" target="m62q8-EZePNYTG0ktoij-171">
          <mxGeometry relative="1" as="geometry">
            <mxPoint x="800" y="114" as="targetPoint" />
          </mxGeometry>
        </mxCell>
        <mxCell id="kG2L2xWDp4zw-5RFXqIC-110" value="&lt;u style=&quot;font-size: 16px;&quot;&gt;UID&lt;/u&gt;" style="ellipse;whiteSpace=wrap;html=1;rounded=0;fontSize=16;" parent="1" vertex="1">
          <mxGeometry x="570" y="94" width="150" height="40" as="geometry" />
        </mxCell>
        <mxCell id="kG2L2xWDp4zw-5RFXqIC-112" value="Day of Week" style="ellipse;whiteSpace=wrap;html=1;rounded=0;fontSize=16;" parent="1" vertex="1">
          <mxGeometry x="840" y="-565" width="120" height="40" as="geometry" />
        </mxCell>
        <mxCell id="kG2L2xWDp4zw-5RFXqIC-114" value="killed" style="ellipse;whiteSpace=wrap;html=1;rounded=0;fontSize=16;" parent="1" vertex="1">
          <mxGeometry x="1830" y="-559" width="80" height="40" as="geometry" />
        </mxCell>
        <mxCell id="kG2L2xWDp4zw-5RFXqIC-118" value="injured" style="ellipse;whiteSpace=wrap;html=1;rounded=0;fontSize=16;" parent="1" vertex="1">
          <mxGeometry x="1131.5" y="-570" width="115" height="40" as="geometry" />
        </mxCell>
        <mxCell id="kG2L2xWDp4zw-5RFXqIC-119" value="casualties" style="ellipse;whiteSpace=wrap;html=1;rounded=0;fontSize=16;" parent="1" vertex="1">
          <mxGeometry x="1686" y="-560" width="120" height="35" as="geometry" />
        </mxCell>
        <mxCell id="kG2L2xWDp4zw-5RFXqIC-122" value="resource_officer" style="ellipse;whiteSpace=wrap;html=1;rounded=0;fontSize=16;" parent="1" vertex="1">
          <mxGeometry x="413.5" y="-574" width="120" height="50" as="geometry" />
        </mxCell>
        <mxCell id="NiUCZ3gXmQGHFYubytSW-4" value="SchoolShooter&lt;br style=&quot;border-color: var(--border-color);&quot;&gt;Relation" style="rhombus;whiteSpace=wrap;html=1;fillColor=none;fontSize=16;" parent="1" vertex="1">
          <mxGeometry x="210" y="340" width="160" height="120" as="geometry" />
        </mxCell>
        <mxCell id="NiUCZ3gXmQGHFYubytSW-7" value="" style="rounded=0;orthogonalLoop=1;jettySize=auto;html=1;entryX=0.5;entryY=0;entryDx=0;entryDy=0;edgeStyle=orthogonalEdgeStyle;endArrow=none;endFill=0;" parent="1" source="NiUCZ3gXmQGHFYubytSW-13" target="NiUCZ3gXmQGHFYubytSW-18" edge="1">
          <mxGeometry relative="1" as="geometry">
            <Array as="points">
              <mxPoint x="570" y="725" />
              <mxPoint x="556" y="725" />
            </Array>
          </mxGeometry>
        </mxCell>
        <mxCell id="NiUCZ3gXmQGHFYubytSW-8" value="" style="rounded=0;orthogonalLoop=1;jettySize=auto;html=1;edgeStyle=orthogonalEdgeStyle;endArrow=none;endFill=0;entryX=0.5;entryY=0;entryDx=0;entryDy=0;" parent="1" target="NiUCZ3gXmQGHFYubytSW-19" edge="1">
          <mxGeometry relative="1" as="geometry">
            <Array as="points">
              <mxPoint x="570" y="602" />
              <mxPoint x="570" y="725" />
              <mxPoint x="706" y="725" />
            </Array>
            <mxPoint x="580" y="602.5" as="sourcePoint" />
            <mxPoint x="715.9999999999995" y="834.9999999999995" as="targetPoint" />
          </mxGeometry>
        </mxCell>
        <mxCell id="NiUCZ3gXmQGHFYubytSW-9" value="" style="rounded=0;orthogonalLoop=1;jettySize=auto;html=1;edgeStyle=orthogonalEdgeStyle;endArrow=none;endFill=0;entryX=0.5;entryY=0;entryDx=0;entryDy=0;" parent="1" source="NiUCZ3gXmQGHFYubytSW-13" target="NiUCZ3gXmQGHFYubytSW-20" edge="1">
          <mxGeometry relative="1" as="geometry">
            <Array as="points">
              <mxPoint x="570" y="725" />
              <mxPoint x="850" y="725" />
              <mxPoint x="850" y="840" />
            </Array>
          </mxGeometry>
        </mxCell>
        <mxCell id="NiUCZ3gXmQGHFYubytSW-13" value="TypeShooter" style="rounded=0;whiteSpace=wrap;html=1;fontSize=16;" parent="1" vertex="1">
          <mxGeometry x="510" y="540" width="120" height="60" as="geometry" />
        </mxCell>
        <mxCell id="NiUCZ3gXmQGHFYubytSW-15" value="" style="rounded=0;orthogonalLoop=1;jettySize=auto;html=1;exitX=0.5;exitY=1;exitDx=0;exitDy=0;entryX=0.5;entryY=0;entryDx=0;entryDy=0;edgeStyle=orthogonalEdgeStyle;endArrow=none;endFill=0;" parent="1" source="NiUCZ3gXmQGHFYubytSW-13" target="NiUCZ3gXmQGHFYubytSW-16" edge="1">
          <mxGeometry relative="1" as="geometry">
            <mxPoint x="691.0000000000005" y="600.5" as="sourcePoint" />
            <Array as="points">
              <mxPoint x="570" y="726" />
              <mxPoint x="144" y="726" />
            </Array>
          </mxGeometry>
        </mxCell>
        <mxCell id="NiUCZ3gXmQGHFYubytSW-16" value="&lt;u&gt;UID&lt;/u&gt;" style="ellipse;whiteSpace=wrap;html=1;rounded=0;fontSize=16;" parent="1" vertex="1">
          <mxGeometry x="84" y="835.5" width="120" height="50" as="geometry" />
        </mxCell>
        <mxCell id="NiUCZ3gXmQGHFYubytSW-63" style="edgeStyle=orthogonalEdgeStyle;rounded=0;orthogonalLoop=1;jettySize=auto;html=1;endArrow=none;endFill=0;" parent="1" source="NiUCZ3gXmQGHFYubytSW-17" target="NiUCZ3gXmQGHFYubytSW-13" edge="1">
          <mxGeometry relative="1" as="geometry">
            <Array as="points">
              <mxPoint x="298" y="725" />
              <mxPoint x="570" y="725" />
            </Array>
          </mxGeometry>
        </mxCell>
        <mxCell id="NiUCZ3gXmQGHFYubytSW-17" value="gender shooter" style="ellipse;whiteSpace=wrap;html=1;rounded=0;fontSize=16;" parent="1" vertex="1">
          <mxGeometry x="227.51" y="832.5" width="120" height="50" as="geometry" />
        </mxCell>
        <mxCell id="NiUCZ3gXmQGHFYubytSW-18" value="race ethnicity shooter" style="ellipse;whiteSpace=wrap;html=1;rounded=0;fontSize=16;" parent="1" vertex="1">
          <mxGeometry x="491" y="830" width="130" height="55" as="geometry" />
        </mxCell>
        <mxCell id="NiUCZ3gXmQGHFYubytSW-19" value="shooter relationship" style="ellipse;whiteSpace=wrap;html=1;rounded=0;fontSize=16;" parent="1" vertex="1">
          <mxGeometry x="636" y="832.5" width="140" height="50" as="geometry" />
        </mxCell>
        <mxCell id="NiUCZ3gXmQGHFYubytSW-20" value="shooter deceased" style="ellipse;whiteSpace=wrap;html=1;rounded=0;fontSize=16;" parent="1" vertex="1">
          <mxGeometry x="790" y="840" width="110" height="45" as="geometry" />
        </mxCell>
        <mxCell id="NiUCZ3gXmQGHFYubytSW-21" value="" style="rounded=0;orthogonalLoop=1;jettySize=auto;html=1;exitX=0.5;exitY=1;exitDx=0;exitDy=0;edgeStyle=orthogonalEdgeStyle;endArrow=none;endFill=0;" parent="1" source="NiUCZ3gXmQGHFYubytSW-13" target="NiUCZ3gXmQGHFYubytSW-22" edge="1">
          <mxGeometry relative="1" as="geometry">
            <mxPoint x="316" y="970" as="sourcePoint" />
            <Array as="points">
              <mxPoint x="570" y="725" />
              <mxPoint x="1004" y="725" />
            </Array>
          </mxGeometry>
        </mxCell>
        <mxCell id="NiUCZ3gXmQGHFYubytSW-22" value="deceased notes" style="ellipse;whiteSpace=wrap;html=1;rounded=0;fontSize=16;" parent="1" vertex="1">
          <mxGeometry x="916" y="845" width="110" height="40" as="geometry" />
        </mxCell>
        <mxCell id="NiUCZ3gXmQGHFYubytSW-69" value="" style="rounded=0;orthogonalLoop=1;jettySize=auto;html=1;entryX=0;entryY=0.5;entryDx=0;entryDy=0;endArrow=none;endFill=0;edgeStyle=orthogonalEdgeStyle;exitX=1;exitY=0.5;exitDx=0;exitDy=0;" parent="1" source="kG2L2xWDp4zw-5RFXqIC-6" target="NiUCZ3gXmQGHFYubytSW-4" edge="1">
          <mxGeometry relative="1" as="geometry">
            <Array as="points">
              <mxPoint x="40" y="-7" />
              <mxPoint x="40" y="400" />
            </Array>
          </mxGeometry>
        </mxCell>
        <mxCell id="NiUCZ3gXmQGHFYubytSW-71" value="" style="rounded=0;orthogonalLoop=1;jettySize=auto;html=1;endArrow=none;endFill=0;edgeStyle=orthogonalEdgeStyle;entryX=0;entryY=0.5;entryDx=0;entryDy=0;exitX=0.5;exitY=1;exitDx=0;exitDy=0;" parent="1" source="NiUCZ3gXmQGHFYubytSW-4" target="NiUCZ3gXmQGHFYubytSW-13" edge="1">
          <mxGeometry relative="1" as="geometry">
            <Array as="points">
              <mxPoint x="290" y="565" />
              <mxPoint x="510" y="565" />
            </Array>
            <mxPoint x="-40" y="465" as="sourcePoint" />
            <mxPoint x="-149.99999999999955" y="790" as="targetPoint" />
          </mxGeometry>
        </mxCell>
        <mxCell id="NiUCZ3gXmQGHFYubytSW-94" style="edgeStyle=orthogonalEdgeStyle;rounded=0;orthogonalLoop=1;jettySize=auto;html=1;endArrow=none;endFill=0;entryX=0.5;entryY=1;entryDx=0;entryDy=0;" parent="1" source="NiUCZ3gXmQGHFYubytSW-95" target="NiUCZ3gXmQGHFYubytSW-13" edge="1">
          <mxGeometry relative="1" as="geometry">
            <mxPoint x="580" y="610" as="targetPoint" />
            <Array as="points">
              <mxPoint x="418" y="725" />
              <mxPoint x="570" y="725" />
            </Array>
          </mxGeometry>
        </mxCell>
        <mxCell id="NiUCZ3gXmQGHFYubytSW-95" value="age shooter" style="ellipse;whiteSpace=wrap;html=1;rounded=0;fontSize=16;" parent="1" vertex="1">
          <mxGeometry x="357.5" y="832.5" width="120" height="50" as="geometry" />
        </mxCell>
        <mxCell id="m62q8-EZePNYTG0ktoij-3" value="Shooter-Incident" style="rhombus;whiteSpace=wrap;html=1;fillColor=none;fontSize=16;" vertex="1" parent="1">
          <mxGeometry x="776" y="310" width="160" height="120" as="geometry" />
        </mxCell>
        <mxCell id="m62q8-EZePNYTG0ktoij-39" value="" style="edgeStyle=orthogonalEdgeStyle;rounded=0;orthogonalLoop=1;jettySize=auto;html=1;entryX=1;entryY=0.5;entryDx=0;entryDy=0;endArrow=none;endFill=0;" edge="1" parent="1" target="m62q8-EZePNYTG0ktoij-38">
          <mxGeometry relative="1" as="geometry">
            <mxPoint x="-509.9999999999999" y="-141" as="sourcePoint" />
            <Array as="points">
              <mxPoint x="-580" y="-141" />
              <mxPoint x="-580" y="-183" />
            </Array>
          </mxGeometry>
        </mxCell>
        <mxCell id="m62q8-EZePNYTG0ktoij-38" value="&lt;u&gt;nces_district_id&lt;/u&gt;" style="ellipse;whiteSpace=wrap;html=1;fontSize=16;rounded=0;" vertex="1" parent="1">
          <mxGeometry x="-810" y="-211" width="170" height="55" as="geometry" />
        </mxCell>
        <mxCell id="m62q8-EZePNYTG0ktoij-41" value="district_name" style="ellipse;whiteSpace=wrap;html=1;fontSize=16;rounded=0;" vertex="1" parent="1">
          <mxGeometry x="-770" y="-141" width="130" height="60" as="geometry" />
        </mxCell>
        <mxCell id="m62q8-EZePNYTG0ktoij-43" value="" style="edgeStyle=orthogonalEdgeStyle;rounded=0;orthogonalLoop=1;jettySize=auto;html=1;endArrow=none;endFill=0;exitX=0;exitY=0.5;exitDx=0;exitDy=0;" edge="1" target="m62q8-EZePNYTG0ktoij-44" parent="1" source="kG2L2xWDp4zw-5RFXqIC-51">
          <mxGeometry relative="1" as="geometry">
            <mxPoint x="-255" y="45" as="sourcePoint" />
            <Array as="points">
              <mxPoint x="-350" y="-584" />
              <mxPoint x="-350" y="-140" />
            </Array>
          </mxGeometry>
        </mxCell>
        <mxCell id="m62q8-EZePNYTG0ktoij-44" value="district" style="whiteSpace=wrap;html=1;fontSize=16;rounded=0;" vertex="1" parent="1">
          <mxGeometry x="-520" y="-171" width="120" height="60" as="geometry" />
        </mxCell>
        <mxCell id="m62q8-EZePNYTG0ktoij-46" value="" style="edgeStyle=orthogonalEdgeStyle;rounded=0;orthogonalLoop=1;jettySize=auto;html=1;endArrow=none;endFill=0;entryX=1;entryY=0.5;entryDx=0;entryDy=0;exitX=0;exitY=0.5;exitDx=0;exitDy=0;" edge="1" parent="1" target="m62q8-EZePNYTG0ktoij-41" source="m62q8-EZePNYTG0ktoij-44">
          <mxGeometry relative="1" as="geometry">
            <mxPoint x="-500" y="-131" as="sourcePoint" />
            <Array as="points">
              <mxPoint x="-580" y="-141" />
              <mxPoint x="-580" y="-111" />
            </Array>
            <mxPoint x="-560" y="-61" as="targetPoint" />
          </mxGeometry>
        </mxCell>
        <mxCell id="m62q8-EZePNYTG0ktoij-47" value="&lt;u&gt;uid&lt;/u&gt;" style="ellipse;whiteSpace=wrap;html=1;fontSize=16;rounded=0;" vertex="1" parent="1">
          <mxGeometry x="-730" y="-680" width="110" height="55" as="geometry" />
        </mxCell>
        <mxCell id="m62q8-EZePNYTG0ktoij-48" value="city" style="ellipse;whiteSpace=wrap;html=1;fontSize=16;rounded=0;" vertex="1" parent="1">
          <mxGeometry x="-740" y="-614" width="130" height="44" as="geometry" />
        </mxCell>
        <mxCell id="m62q8-EZePNYTG0ktoij-50" value="city&#x9;" style="whiteSpace=wrap;html=1;fontSize=16;rounded=0;" vertex="1" parent="1">
          <mxGeometry x="-515" y="-650" width="120" height="60" as="geometry" />
        </mxCell>
        <mxCell id="m62q8-EZePNYTG0ktoij-75" value="" style="edgeStyle=orthogonalEdgeStyle;rounded=0;orthogonalLoop=1;jettySize=auto;html=1;endArrow=none;endFill=0;exitX=0;exitY=0.5;exitDx=0;exitDy=0;entryX=1;entryY=0.5;entryDx=0;entryDy=0;" edge="1" parent="1" source="kG2L2xWDp4zw-5RFXqIC-51" target="m62q8-EZePNYTG0ktoij-50">
          <mxGeometry relative="1" as="geometry">
            <mxPoint x="-235" y="-574" as="sourcePoint" />
            <mxPoint x="-380" y="-760" as="targetPoint" />
            <Array as="points">
              <mxPoint x="-350" y="-584" />
              <mxPoint x="-350" y="-620" />
            </Array>
          </mxGeometry>
        </mxCell>
        <mxCell id="m62q8-EZePNYTG0ktoij-76" value="" style="edgeStyle=orthogonalEdgeStyle;rounded=0;orthogonalLoop=1;jettySize=auto;html=1;endArrow=none;endFill=0;entryX=1;entryY=0.5;entryDx=0;entryDy=0;exitX=0;exitY=0.5;exitDx=0;exitDy=0;" edge="1" parent="1" source="m62q8-EZePNYTG0ktoij-50" target="m62q8-EZePNYTG0ktoij-47">
          <mxGeometry relative="1" as="geometry">
            <mxPoint x="-460" y="-600" as="sourcePoint" />
            <mxPoint x="-610" y="-625" as="targetPoint" />
            <Array as="points">
              <mxPoint x="-515" y="-610" />
              <mxPoint x="-560" y="-610" />
              <mxPoint x="-560" y="-650" />
              <mxPoint x="-620" y="-650" />
            </Array>
          </mxGeometry>
        </mxCell>
        <mxCell id="m62q8-EZePNYTG0ktoij-77" value="" style="edgeStyle=orthogonalEdgeStyle;rounded=0;orthogonalLoop=1;jettySize=auto;html=1;endArrow=none;endFill=0;entryX=1;entryY=0.5;entryDx=0;entryDy=0;exitX=0;exitY=0.75;exitDx=0;exitDy=0;" edge="1" parent="1" source="m62q8-EZePNYTG0ktoij-50" target="m62q8-EZePNYTG0ktoij-48">
          <mxGeometry relative="1" as="geometry">
            <mxPoint x="-450" y="-470" as="sourcePoint" />
            <mxPoint x="-615" y="-580" as="targetPoint" />
            <Array as="points">
              <mxPoint x="-560" y="-605" />
              <mxPoint x="-560" y="-592" />
            </Array>
          </mxGeometry>
        </mxCell>
        <mxCell id="m62q8-EZePNYTG0ktoij-92" value="&lt;u&gt;state_fips&lt;/u&gt;" style="ellipse;whiteSpace=wrap;html=1;fontSize=16;rounded=0;" vertex="1" parent="1">
          <mxGeometry x="-740" y="-554" width="110" height="55" as="geometry" />
        </mxCell>
        <mxCell id="m62q8-EZePNYTG0ktoij-93" value="state" style="ellipse;whiteSpace=wrap;html=1;fontSize=16;rounded=0;" vertex="1" parent="1">
          <mxGeometry x="-750" y="-488" width="130" height="44" as="geometry" />
        </mxCell>
        <mxCell id="m62q8-EZePNYTG0ktoij-94" value="state&#x9;" style="whiteSpace=wrap;html=1;fontSize=16;rounded=0;" vertex="1" parent="1">
          <mxGeometry x="-525" y="-524" width="120" height="60" as="geometry" />
        </mxCell>
        <mxCell id="m62q8-EZePNYTG0ktoij-95" value="" style="edgeStyle=orthogonalEdgeStyle;rounded=0;orthogonalLoop=1;jettySize=auto;html=1;endArrow=none;endFill=0;exitX=0;exitY=0.5;exitDx=0;exitDy=0;entryX=1;entryY=0.5;entryDx=0;entryDy=0;" edge="1" parent="1" target="m62q8-EZePNYTG0ktoij-94">
          <mxGeometry relative="1" as="geometry">
            <mxPoint x="-245" y="-584" as="sourcePoint" />
            <mxPoint x="-390" y="-634" as="targetPoint" />
            <Array as="points">
              <mxPoint x="-350" y="-584" />
              <mxPoint x="-350" y="-494" />
            </Array>
          </mxGeometry>
        </mxCell>
        <mxCell id="m62q8-EZePNYTG0ktoij-96" value="" style="edgeStyle=orthogonalEdgeStyle;rounded=0;orthogonalLoop=1;jettySize=auto;html=1;endArrow=none;endFill=0;entryX=1;entryY=0.5;entryDx=0;entryDy=0;exitX=0;exitY=0.5;exitDx=0;exitDy=0;" edge="1" parent="1" source="m62q8-EZePNYTG0ktoij-94" target="m62q8-EZePNYTG0ktoij-92">
          <mxGeometry relative="1" as="geometry">
            <mxPoint x="-470" y="-474" as="sourcePoint" />
            <mxPoint x="-620" y="-499" as="targetPoint" />
            <Array as="points">
              <mxPoint x="-525" y="-484" />
              <mxPoint x="-570" y="-484" />
              <mxPoint x="-570" y="-524" />
              <mxPoint x="-630" y="-524" />
            </Array>
          </mxGeometry>
        </mxCell>
        <mxCell id="m62q8-EZePNYTG0ktoij-97" value="" style="edgeStyle=orthogonalEdgeStyle;rounded=0;orthogonalLoop=1;jettySize=auto;html=1;endArrow=none;endFill=0;entryX=1;entryY=0.5;entryDx=0;entryDy=0;exitX=0;exitY=0.75;exitDx=0;exitDy=0;" edge="1" parent="1" source="m62q8-EZePNYTG0ktoij-94" target="m62q8-EZePNYTG0ktoij-93">
          <mxGeometry relative="1" as="geometry">
            <mxPoint x="-460" y="-344" as="sourcePoint" />
            <mxPoint x="-625" y="-454" as="targetPoint" />
            <Array as="points">
              <mxPoint x="-570" y="-479" />
              <mxPoint x="-570" y="-466" />
            </Array>
          </mxGeometry>
        </mxCell>
        <mxCell id="m62q8-EZePNYTG0ktoij-98" value="&lt;u&gt;uid&lt;/u&gt;" style="ellipse;whiteSpace=wrap;html=1;fontSize=16;rounded=0;" vertex="1" parent="1">
          <mxGeometry x="-750" y="-420" width="110" height="41" as="geometry" />
        </mxCell>
        <mxCell id="m62q8-EZePNYTG0ktoij-99" value="ulocale&#x9;" style="ellipse;whiteSpace=wrap;html=1;fontSize=16;rounded=0;" vertex="1" parent="1">
          <mxGeometry x="-760" y="-368" width="130" height="44" as="geometry" />
        </mxCell>
        <mxCell id="m62q8-EZePNYTG0ktoij-100" value="ulocale&#x9;" style="whiteSpace=wrap;html=1;fontSize=16;rounded=0;" vertex="1" parent="1">
          <mxGeometry x="-520" y="-404" width="120" height="60" as="geometry" />
        </mxCell>
        <mxCell id="m62q8-EZePNYTG0ktoij-101" value="" style="edgeStyle=orthogonalEdgeStyle;rounded=0;orthogonalLoop=1;jettySize=auto;html=1;endArrow=none;endFill=0;exitX=0;exitY=0.5;exitDx=0;exitDy=0;entryX=1;entryY=0.5;entryDx=0;entryDy=0;" edge="1" parent="1" target="m62q8-EZePNYTG0ktoij-100" source="kG2L2xWDp4zw-5RFXqIC-51">
          <mxGeometry relative="1" as="geometry">
            <mxPoint x="-255" y="-464" as="sourcePoint" />
            <mxPoint x="-400" y="-514" as="targetPoint" />
            <Array as="points">
              <mxPoint x="-350" y="-584" />
              <mxPoint x="-350" y="-374" />
            </Array>
          </mxGeometry>
        </mxCell>
        <mxCell id="m62q8-EZePNYTG0ktoij-102" value="" style="edgeStyle=orthogonalEdgeStyle;rounded=0;orthogonalLoop=1;jettySize=auto;html=1;endArrow=none;endFill=0;entryX=1;entryY=0.5;entryDx=0;entryDy=0;exitX=0;exitY=0.75;exitDx=0;exitDy=0;" edge="1" parent="1" source="m62q8-EZePNYTG0ktoij-100" target="m62q8-EZePNYTG0ktoij-98">
          <mxGeometry relative="1" as="geometry">
            <mxPoint x="-480" y="-354" as="sourcePoint" />
            <mxPoint x="-630" y="-379" as="targetPoint" />
            <Array as="points">
              <mxPoint x="-580" y="-359" />
              <mxPoint x="-580" y="-404" />
              <mxPoint x="-640" y="-404" />
            </Array>
          </mxGeometry>
        </mxCell>
        <mxCell id="m62q8-EZePNYTG0ktoij-103" value="" style="edgeStyle=orthogonalEdgeStyle;rounded=0;orthogonalLoop=1;jettySize=auto;html=1;endArrow=none;endFill=0;entryX=1;entryY=0.5;entryDx=0;entryDy=0;exitX=0;exitY=0.75;exitDx=0;exitDy=0;" edge="1" parent="1" source="m62q8-EZePNYTG0ktoij-100" target="m62q8-EZePNYTG0ktoij-99">
          <mxGeometry relative="1" as="geometry">
            <mxPoint x="-470" y="-224" as="sourcePoint" />
            <mxPoint x="-635" y="-334" as="targetPoint" />
            <Array as="points">
              <mxPoint x="-590" y="-359" />
              <mxPoint x="-590" y="-346" />
            </Array>
          </mxGeometry>
        </mxCell>
        <mxCell id="m62q8-EZePNYTG0ktoij-104" value="&lt;u&gt;county_fips&lt;/u&gt;" style="ellipse;whiteSpace=wrap;html=1;fontSize=16;rounded=0;" vertex="1" parent="1">
          <mxGeometry x="-750" y="-310" width="110" height="39" as="geometry" />
        </mxCell>
        <mxCell id="m62q8-EZePNYTG0ktoij-105" value="county&#x9;" style="ellipse;whiteSpace=wrap;html=1;fontSize=16;rounded=0;" vertex="1" parent="1">
          <mxGeometry x="-760" y="-260" width="130" height="44" as="geometry" />
        </mxCell>
        <mxCell id="m62q8-EZePNYTG0ktoij-106" value="county&#x9;" style="whiteSpace=wrap;html=1;fontSize=16;rounded=0;" vertex="1" parent="1">
          <mxGeometry x="-520" y="-296" width="120" height="60" as="geometry" />
        </mxCell>
        <mxCell id="m62q8-EZePNYTG0ktoij-107" value="" style="edgeStyle=orthogonalEdgeStyle;rounded=0;orthogonalLoop=1;jettySize=auto;html=1;endArrow=none;endFill=0;exitX=0;exitY=0.5;exitDx=0;exitDy=0;entryX=1;entryY=0.5;entryDx=0;entryDy=0;" edge="1" parent="1" target="m62q8-EZePNYTG0ktoij-106" source="kG2L2xWDp4zw-5RFXqIC-51">
          <mxGeometry relative="1" as="geometry">
            <mxPoint x="-245" y="-476" as="sourcePoint" />
            <mxPoint x="-400" y="-406" as="targetPoint" />
            <Array as="points">
              <mxPoint x="-350" y="-584" />
              <mxPoint x="-350" y="-266" />
            </Array>
          </mxGeometry>
        </mxCell>
        <mxCell id="m62q8-EZePNYTG0ktoij-108" value="" style="edgeStyle=orthogonalEdgeStyle;rounded=0;orthogonalLoop=1;jettySize=auto;html=1;endArrow=none;endFill=0;entryX=1;entryY=0.5;entryDx=0;entryDy=0;exitX=0;exitY=0.75;exitDx=0;exitDy=0;" edge="1" parent="1" source="m62q8-EZePNYTG0ktoij-106" target="m62q8-EZePNYTG0ktoij-104">
          <mxGeometry relative="1" as="geometry">
            <mxPoint x="-480" y="-246" as="sourcePoint" />
            <mxPoint x="-630" y="-271" as="targetPoint" />
            <Array as="points">
              <mxPoint x="-580" y="-251" />
              <mxPoint x="-580" y="-296" />
              <mxPoint x="-640" y="-296" />
            </Array>
          </mxGeometry>
        </mxCell>
        <mxCell id="m62q8-EZePNYTG0ktoij-109" value="" style="edgeStyle=orthogonalEdgeStyle;rounded=0;orthogonalLoop=1;jettySize=auto;html=1;endArrow=none;endFill=0;entryX=1;entryY=0.5;entryDx=0;entryDy=0;exitX=0;exitY=0.75;exitDx=0;exitDy=0;" edge="1" parent="1" source="m62q8-EZePNYTG0ktoij-106" target="m62q8-EZePNYTG0ktoij-105">
          <mxGeometry relative="1" as="geometry">
            <mxPoint x="-470" y="-116" as="sourcePoint" />
            <mxPoint x="-635" y="-226" as="targetPoint" />
            <Array as="points">
              <mxPoint x="-590" y="-251" />
              <mxPoint x="-590" y="-238" />
            </Array>
          </mxGeometry>
        </mxCell>
        <mxCell id="m62q8-EZePNYTG0ktoij-116" value="&lt;u&gt;UID&lt;/u&gt;" style="ellipse;whiteSpace=wrap;html=1;rounded=0;fontSize=16;" vertex="1" parent="1">
          <mxGeometry x="-982" y="-5" width="155" height="50" as="geometry" />
        </mxCell>
        <mxCell id="m62q8-EZePNYTG0ktoij-119" value="" style="edgeStyle=orthogonalEdgeStyle;rounded=0;orthogonalLoop=1;jettySize=auto;html=1;endArrow=none;endFill=0;exitX=0;exitY=0.5;exitDx=0;exitDy=0;" edge="1" parent="1" target="m62q8-EZePNYTG0ktoij-120" source="kG2L2xWDp4zw-5RFXqIC-2">
          <mxGeometry relative="1" as="geometry">
            <mxPoint x="-760" y="135" as="sourcePoint" />
            <Array as="points">
              <mxPoint x="-790" y="65" />
              <mxPoint x="-790" y="90" />
            </Array>
          </mxGeometry>
        </mxCell>
        <mxCell id="m62q8-EZePNYTG0ktoij-120" value="school_type" style="ellipse;whiteSpace=wrap;html=1;rounded=0;fontSize=16;" vertex="1" parent="1">
          <mxGeometry x="-985" y="65" width="155" height="50" as="geometry" />
        </mxCell>
        <mxCell id="m62q8-EZePNYTG0ktoij-124" value="" style="edgeStyle=orthogonalEdgeStyle;rounded=0;orthogonalLoop=1;jettySize=auto;html=1;entryX=0;entryY=0.5;entryDx=0;entryDy=0;endArrow=none;endFill=0;exitX=1;exitY=0.5;exitDx=0;exitDy=0;" edge="1" parent="1" source="kG2L2xWDp4zw-5RFXqIC-47" target="kG2L2xWDp4zw-5RFXqIC-3">
          <mxGeometry relative="1" as="geometry">
            <mxPoint x="-375" y="110" as="sourcePoint" />
            <mxPoint x="-242.5" y="120" as="targetPoint" />
            <Array as="points">
              <mxPoint x="-310" y="65" />
              <mxPoint x="-310" y="95" />
            </Array>
          </mxGeometry>
        </mxCell>
        <mxCell id="m62q8-EZePNYTG0ktoij-125" value="" style="rounded=0;orthogonalLoop=1;jettySize=auto;html=1;edgeStyle=orthogonalEdgeStyle;exitX=0.5;exitY=1;exitDx=0;exitDy=0;endArrow=none;endFill=0;" edge="1" parent="1" target="m62q8-EZePNYTG0ktoij-126" source="kG2L2xWDp4zw-5RFXqIC-30">
          <mxGeometry relative="1" as="geometry">
            <Array as="points">
              <mxPoint x="-500" y="333" />
              <mxPoint x="-1000" y="333" />
            </Array>
            <mxPoint x="-610" y="262.5" as="sourcePoint" />
          </mxGeometry>
        </mxCell>
        <mxCell id="m62q8-EZePNYTG0ktoij-126" value="&lt;u&gt;UID&lt;/u&gt;" style="ellipse;whiteSpace=wrap;html=1;rounded=0;fontSize=16;" vertex="1" parent="1">
          <mxGeometry x="-1040" y="397.5" width="80" height="40" as="geometry" />
        </mxCell>
        <mxCell id="m62q8-EZePNYTG0ktoij-168" value="" style="edgeStyle=orthogonalEdgeStyle;rounded=0;orthogonalLoop=1;jettySize=auto;html=1;endArrow=none;endFill=0;" edge="1" parent="1" source="m62q8-EZePNYTG0ktoij-133" target="kG2L2xWDp4zw-5RFXqIC-110">
          <mxGeometry relative="1" as="geometry" />
        </mxCell>
        <mxCell id="m62q8-EZePNYTG0ktoij-133" value="ShootingIncident" style="rhombus;whiteSpace=wrap;html=1;fillColor=none;fontSize=16;" vertex="1" parent="1">
          <mxGeometry x="565.5" y="-450" width="160" height="120" as="geometry" />
        </mxCell>
        <mxCell id="m62q8-EZePNYTG0ktoij-134" value="" style="rounded=0;orthogonalLoop=1;jettySize=auto;html=1;entryX=0;entryY=0.5;entryDx=0;entryDy=0;endArrow=none;endFill=0;edgeStyle=orthogonalEdgeStyle;exitX=1;exitY=0.5;exitDx=0;exitDy=0;" edge="1" parent="1" source="kG2L2xWDp4zw-5RFXqIC-6" target="m62q8-EZePNYTG0ktoij-133">
          <mxGeometry relative="1" as="geometry">
            <Array as="points">
              <mxPoint x="260" y="-7" />
              <mxPoint x="260" y="-390" />
            </Array>
            <mxPoint x="120" y="-60" as="sourcePoint" />
            <mxPoint x="435" y="348" as="targetPoint" />
          </mxGeometry>
        </mxCell>
        <mxCell id="m62q8-EZePNYTG0ktoij-135" value="" style="rounded=0;orthogonalLoop=1;jettySize=auto;html=1;entryX=0;entryY=0.5;entryDx=0;entryDy=0;endArrow=none;endFill=0;edgeStyle=orthogonalEdgeStyle;exitX=1;exitY=0.5;exitDx=0;exitDy=0;" edge="1" parent="1" target="m62q8-EZePNYTG0ktoij-133">
          <mxGeometry relative="1" as="geometry">
            <Array as="points">
              <mxPoint x="260" y="245" />
              <mxPoint x="260" y="-390" />
            </Array>
            <mxPoint x="-429" y="245" as="sourcePoint" />
            <mxPoint x="576.4999999999995" y="50" as="targetPoint" />
          </mxGeometry>
        </mxCell>
        <mxCell id="m62q8-EZePNYTG0ktoij-142" value="school_year&#x9;" style="ellipse;whiteSpace=wrap;html=1;rounded=0;fontSize=16;" vertex="1" parent="1">
          <mxGeometry x="1000" y="-567.5" width="120" height="35" as="geometry" />
        </mxCell>
        <mxCell id="m62q8-EZePNYTG0ktoij-144" value="enrollment&#x9;" style="ellipse;whiteSpace=wrap;html=1;rounded=0;fontSize=16;" vertex="1" parent="1">
          <mxGeometry x="690" y="-562.5" width="120" height="35" as="geometry" />
        </mxCell>
        <mxCell id="m62q8-EZePNYTG0ktoij-145" value="staffing&#x9;" style="ellipse;whiteSpace=wrap;html=1;rounded=0;fontSize=16;" vertex="1" parent="1">
          <mxGeometry x="1265" y="-567.5" width="120" height="35" as="geometry" />
        </mxCell>
        <mxCell id="m62q8-EZePNYTG0ktoij-146" value="low_grade&#x9;" style="ellipse;whiteSpace=wrap;html=1;rounded=0;fontSize=16;" vertex="1" parent="1">
          <mxGeometry x="1400" y="-561.5" width="120" height="35" as="geometry" />
        </mxCell>
        <mxCell id="m62q8-EZePNYTG0ktoij-147" value="high_grade&#x9;" style="ellipse;whiteSpace=wrap;html=1;rounded=0;fontSize=16;" vertex="1" parent="1">
          <mxGeometry x="550" y="-564" width="120" height="35" as="geometry" />
        </mxCell>
        <mxCell id="m62q8-EZePNYTG0ktoij-148" value="lunch&#x9;" style="ellipse;whiteSpace=wrap;html=1;rounded=0;fontSize=16;" vertex="1" parent="1">
          <mxGeometry x="1535" y="-559" width="120" height="35" as="geometry" />
        </mxCell>
        <mxCell id="m62q8-EZePNYTG0ktoij-151" value="ShooterIncident&lt;br&gt;Location&#x9;" style="whiteSpace=wrap;html=1;rounded=0;fontSize=17;" vertex="1" parent="1">
          <mxGeometry x="916" y="-444" width="130" height="50" as="geometry" />
        </mxCell>
        <mxCell id="m62q8-EZePNYTG0ktoij-153" value="&lt;u style=&quot;border-color: var(--border-color);&quot;&gt;uid&lt;/u&gt;" style="ellipse;whiteSpace=wrap;html=1;rounded=0;fontSize=16;" vertex="1" parent="1">
          <mxGeometry x="805" y="-330" width="80" height="40" as="geometry" />
        </mxCell>
        <mxCell id="m62q8-EZePNYTG0ktoij-154" value="lat" style="ellipse;whiteSpace=wrap;html=1;rounded=0;fontSize=16;" vertex="1" parent="1">
          <mxGeometry x="1000" y="-320" width="90" height="30" as="geometry" />
        </mxCell>
        <mxCell id="m62q8-EZePNYTG0ktoij-214" style="edgeStyle=orthogonalEdgeStyle;rounded=0;orthogonalLoop=1;jettySize=auto;html=1;entryX=0.5;entryY=0;entryDx=0;entryDy=0;endArrow=none;endFill=0;" edge="1" parent="1" source="m62q8-EZePNYTG0ktoij-156" target="m62q8-EZePNYTG0ktoij-158">
          <mxGeometry relative="1" as="geometry">
            <mxPoint x="1290" y="-390" as="targetPoint" />
            <Array as="points">
              <mxPoint x="1305" y="-390" />
              <mxPoint x="1220" y="-390" />
            </Array>
          </mxGeometry>
        </mxCell>
        <mxCell id="m62q8-EZePNYTG0ktoij-215" style="edgeStyle=orthogonalEdgeStyle;rounded=0;orthogonalLoop=1;jettySize=auto;html=1;exitX=0.5;exitY=1;exitDx=0;exitDy=0;endArrow=none;endFill=0;" edge="1" parent="1" source="m62q8-EZePNYTG0ktoij-156" target="m62q8-EZePNYTG0ktoij-159">
          <mxGeometry relative="1" as="geometry">
            <Array as="points">
              <mxPoint x="1305" y="-390" />
              <mxPoint x="1358" y="-390" />
            </Array>
          </mxGeometry>
        </mxCell>
        <mxCell id="m62q8-EZePNYTG0ktoij-156" value="ShootingType&#x9;" style="whiteSpace=wrap;html=1;rounded=0;fontSize=17;" vertex="1" parent="1">
          <mxGeometry x="1240" y="-444" width="130" height="40" as="geometry" />
        </mxCell>
        <mxCell id="m62q8-EZePNYTG0ktoij-158" value="&lt;u style=&quot;border-color: var(--border-color);&quot;&gt;uid&lt;/u&gt;" style="ellipse;whiteSpace=wrap;html=1;rounded=0;fontSize=16;" vertex="1" parent="1">
          <mxGeometry x="1180" y="-360" width="80" height="40" as="geometry" />
        </mxCell>
        <mxCell id="m62q8-EZePNYTG0ktoij-159" value="shooting_type" style="ellipse;whiteSpace=wrap;html=1;rounded=0;fontSize=16;" vertex="1" parent="1">
          <mxGeometry x="1300" y="-360" width="115" height="40" as="geometry" />
        </mxCell>
        <mxCell id="m62q8-EZePNYTG0ktoij-160" value="long" style="ellipse;whiteSpace=wrap;html=1;rounded=0;fontSize=16;" vertex="1" parent="1">
          <mxGeometry x="900" y="-330" width="90" height="40" as="geometry" />
        </mxCell>
        <mxCell id="m62q8-EZePNYTG0ktoij-164" value="" style="edgeStyle=orthogonalEdgeStyle;rounded=0;orthogonalLoop=1;jettySize=auto;html=1;entryX=0.5;entryY=0;entryDx=0;entryDy=0;endArrow=none;endFill=0;exitX=0.5;exitY=1;exitDx=0;exitDy=0;" edge="1" parent="1" source="m62q8-EZePNYTG0ktoij-151" target="m62q8-EZePNYTG0ktoij-153">
          <mxGeometry relative="1" as="geometry">
            <mxPoint x="960" y="-246" as="sourcePoint" />
            <mxPoint x="1056" y="-186" as="targetPoint" />
            <Array as="points">
              <mxPoint x="981" y="-360" />
              <mxPoint x="845" y="-360" />
            </Array>
          </mxGeometry>
        </mxCell>
        <mxCell id="m62q8-EZePNYTG0ktoij-169" value="" style="edgeStyle=orthogonalEdgeStyle;rounded=0;orthogonalLoop=1;jettySize=auto;html=1;endArrow=none;endFill=0;entryX=0;entryY=0.5;entryDx=0;entryDy=0;exitX=0.5;exitY=1;exitDx=0;exitDy=0;" edge="1" parent="1" source="kG2L2xWDp4zw-5RFXqIC-110" target="m62q8-EZePNYTG0ktoij-3">
          <mxGeometry relative="1" as="geometry">
            <mxPoint x="650.4999999999995" y="227.99999999999977" as="sourcePoint" />
            <mxPoint x="650.16" y="333" as="targetPoint" />
            <Array as="points">
              <mxPoint x="645" y="370" />
            </Array>
          </mxGeometry>
        </mxCell>
        <mxCell id="m62q8-EZePNYTG0ktoij-170" value="" style="edgeStyle=orthogonalEdgeStyle;rounded=0;orthogonalLoop=1;jettySize=auto;html=1;endArrow=none;endFill=0;" edge="1" parent="1" source="m62q8-EZePNYTG0ktoij-171" target="m62q8-EZePNYTG0ktoij-173">
          <mxGeometry relative="1" as="geometry">
            <Array as="points">
              <mxPoint x="1150" y="104" />
              <mxPoint x="1150" y="-39" />
            </Array>
          </mxGeometry>
        </mxCell>
        <mxCell id="m62q8-EZePNYTG0ktoij-171" value="ShooterWeapon&#x9;" style="rhombus;whiteSpace=wrap;html=1;rounded=0;fontSize=16;" vertex="1" parent="1">
          <mxGeometry x="910" y="54" width="140" height="100" as="geometry" />
        </mxCell>
        <mxCell id="m62q8-EZePNYTG0ktoij-172" value="" style="rounded=0;orthogonalLoop=1;jettySize=auto;html=1;exitX=1;exitY=0.5;exitDx=0;exitDy=0;edgeStyle=orthogonalEdgeStyle;endArrow=none;endFill=0;" edge="1" parent="1" source="m62q8-EZePNYTG0ktoij-173" target="m62q8-EZePNYTG0ktoij-176">
          <mxGeometry relative="1" as="geometry">
            <Array as="points">
              <mxPoint x="1420" y="-81" />
              <mxPoint x="1420" y="-31" />
            </Array>
          </mxGeometry>
        </mxCell>
        <mxCell id="m62q8-EZePNYTG0ktoij-173" value="Weapon" style="whiteSpace=wrap;html=1;rounded=0;fontSize=17;" vertex="1" parent="1">
          <mxGeometry x="1220.5" y="-59" width="130" height="40" as="geometry" />
        </mxCell>
        <mxCell id="m62q8-EZePNYTG0ktoij-174" value="" style="rounded=0;orthogonalLoop=1;jettySize=auto;html=1;edgeStyle=orthogonalEdgeStyle;exitX=1;exitY=0.5;exitDx=0;exitDy=0;endArrow=none;endFill=0;" edge="1" parent="1" source="m62q8-EZePNYTG0ktoij-173" target="m62q8-EZePNYTG0ktoij-175">
          <mxGeometry relative="1" as="geometry">
            <mxPoint x="1135.5" y="-56" as="sourcePoint" />
            <Array as="points">
              <mxPoint x="1420" y="-81" />
              <mxPoint x="1420" y="-136" />
            </Array>
          </mxGeometry>
        </mxCell>
        <mxCell id="m62q8-EZePNYTG0ktoij-175" value="&lt;u&gt;uid&lt;/u&gt;" style="ellipse;whiteSpace=wrap;html=1;rounded=0;fontSize=16;" vertex="1" parent="1">
          <mxGeometry x="1464.5" y="-156" width="80" height="40" as="geometry" />
        </mxCell>
        <mxCell id="m62q8-EZePNYTG0ktoij-176" value="weapon" style="ellipse;whiteSpace=wrap;html=1;rounded=0;fontSize=16;" vertex="1" parent="1">
          <mxGeometry x="1464.5" y="-51" width="90" height="40" as="geometry" />
        </mxCell>
        <mxCell id="m62q8-EZePNYTG0ktoij-177" value="" style="rounded=0;orthogonalLoop=1;jettySize=auto;html=1;exitX=1;exitY=0.5;exitDx=0;exitDy=0;edgeStyle=orthogonalEdgeStyle;endArrow=none;endFill=0;" edge="1" parent="1" source="m62q8-EZePNYTG0ktoij-178" target="m62q8-EZePNYTG0ktoij-181">
          <mxGeometry relative="1" as="geometry">
            <Array as="points">
              <mxPoint x="1420" y="84" />
              <mxPoint x="1420" y="134" />
            </Array>
          </mxGeometry>
        </mxCell>
        <mxCell id="m62q8-EZePNYTG0ktoij-178" value="Weapon source&#x9;" style="whiteSpace=wrap;html=1;rounded=0;fontSize=17;" vertex="1" parent="1">
          <mxGeometry x="1220.5" y="99" width="130" height="40" as="geometry" />
        </mxCell>
        <mxCell id="m62q8-EZePNYTG0ktoij-179" value="" style="rounded=0;orthogonalLoop=1;jettySize=auto;html=1;edgeStyle=orthogonalEdgeStyle;exitX=1;exitY=0.5;exitDx=0;exitDy=0;entryX=0;entryY=0.5;entryDx=0;entryDy=0;endArrow=none;endFill=0;" edge="1" parent="1" source="m62q8-EZePNYTG0ktoij-178" target="m62q8-EZePNYTG0ktoij-180">
          <mxGeometry relative="1" as="geometry">
            <mxPoint x="1135.5" y="109" as="sourcePoint" />
            <Array as="points">
              <mxPoint x="1351" y="84" />
              <mxPoint x="1420" y="84" />
              <mxPoint x="1420" y="54" />
            </Array>
          </mxGeometry>
        </mxCell>
        <mxCell id="m62q8-EZePNYTG0ktoij-180" value="&lt;u style=&quot;border-color: var(--border-color);&quot;&gt;uid&lt;/u&gt;" style="ellipse;whiteSpace=wrap;html=1;rounded=0;fontSize=16;" vertex="1" parent="1">
          <mxGeometry x="1464.5" y="34" width="80" height="40" as="geometry" />
        </mxCell>
        <mxCell id="m62q8-EZePNYTG0ktoij-181" value="Weapon source" style="ellipse;whiteSpace=wrap;html=1;rounded=0;fontSize=16;" vertex="1" parent="1">
          <mxGeometry x="1464.5" y="114" width="90" height="40" as="geometry" />
        </mxCell>
        <mxCell id="m62q8-EZePNYTG0ktoij-182" value="" style="rounded=0;orthogonalLoop=1;jettySize=auto;html=1;edgeStyle=orthogonalEdgeStyle;exitX=0.5;exitY=0;exitDx=0;exitDy=0;endArrow=none;endFill=0;" edge="1" parent="1" source="m62q8-EZePNYTG0ktoij-171" target="m62q8-EZePNYTG0ktoij-183">
          <mxGeometry relative="1" as="geometry">
            <Array as="points">
              <mxPoint x="980" y="-26" />
            </Array>
            <mxPoint x="900" y="109" as="sourcePoint" />
          </mxGeometry>
        </mxCell>
        <mxCell id="m62q8-EZePNYTG0ktoij-183" value="&lt;u&gt;uid&lt;/u&gt;" style="ellipse;whiteSpace=wrap;html=1;rounded=0;fontSize=16;" vertex="1" parent="1">
          <mxGeometry x="1023.5" y="-46" width="90" height="40" as="geometry" />
        </mxCell>
        <mxCell id="m62q8-EZePNYTG0ktoij-184" value="" style="edgeStyle=orthogonalEdgeStyle;rounded=0;orthogonalLoop=1;jettySize=auto;html=1;endArrow=none;endFill=0;entryX=0;entryY=0.5;entryDx=0;entryDy=0;exitX=1;exitY=0.5;exitDx=0;exitDy=0;" edge="1" parent="1" source="m62q8-EZePNYTG0ktoij-171" target="m62q8-EZePNYTG0ktoij-178">
          <mxGeometry relative="1" as="geometry">
            <mxPoint x="1060" y="114" as="sourcePoint" />
            <mxPoint x="1231" y="-29" as="targetPoint" />
            <Array as="points">
              <mxPoint x="1150" y="104" />
              <mxPoint x="1150" y="114" />
              <mxPoint x="1221" y="114" />
            </Array>
          </mxGeometry>
        </mxCell>
        <mxCell id="m62q8-EZePNYTG0ktoij-185" value="" style="edgeStyle=orthogonalEdgeStyle;rounded=0;orthogonalLoop=1;jettySize=auto;html=1;entryX=0.5;entryY=0;entryDx=0;entryDy=0;endArrow=none;endFill=0;exitX=0.5;exitY=1;exitDx=0;exitDy=0;" edge="1" parent="1" source="kG2L2xWDp4zw-5RFXqIC-109" target="m62q8-EZePNYTG0ktoij-133">
          <mxGeometry relative="1" as="geometry">
            <mxPoint x="340" y="-321" as="sourcePoint" />
            <mxPoint x="481" y="-163" as="targetPoint" />
            <Array as="points">
              <mxPoint x="263" y="-480" />
              <mxPoint x="645" y="-480" />
            </Array>
          </mxGeometry>
        </mxCell>
        <mxCell id="m62q8-EZePNYTG0ktoij-187" value="" style="edgeStyle=orthogonalEdgeStyle;rounded=0;orthogonalLoop=1;jettySize=auto;html=1;entryX=0.5;entryY=0;entryDx=0;entryDy=0;endArrow=none;endFill=0;exitX=0.5;exitY=1;exitDx=0;exitDy=0;" edge="1" parent="1" source="kG2L2xWDp4zw-5RFXqIC-108" target="m62q8-EZePNYTG0ktoij-133">
          <mxGeometry relative="1" as="geometry">
            <mxPoint x="287.94" y="-456" as="sourcePoint" />
            <mxPoint x="669.94" y="-379" as="targetPoint" />
            <Array as="points">
              <mxPoint x="360" y="-524" />
              <mxPoint x="360" y="-480" />
              <mxPoint x="645" y="-480" />
            </Array>
          </mxGeometry>
        </mxCell>
        <mxCell id="m62q8-EZePNYTG0ktoij-188" value="" style="edgeStyle=orthogonalEdgeStyle;rounded=0;orthogonalLoop=1;jettySize=auto;html=1;entryX=0.5;entryY=0;entryDx=0;entryDy=0;endArrow=none;endFill=0;exitX=0.5;exitY=1;exitDx=0;exitDy=0;" edge="1" parent="1" source="kG2L2xWDp4zw-5RFXqIC-122" target="m62q8-EZePNYTG0ktoij-133">
          <mxGeometry relative="1" as="geometry">
            <mxPoint x="454.47" y="-499" as="sourcePoint" />
            <mxPoint x="836.47" y="-422" as="targetPoint" />
            <Array as="points">
              <mxPoint x="470" y="-524" />
              <mxPoint x="470" y="-480" />
              <mxPoint x="645" y="-480" />
            </Array>
          </mxGeometry>
        </mxCell>
        <mxCell id="m62q8-EZePNYTG0ktoij-190" value="" style="edgeStyle=orthogonalEdgeStyle;rounded=0;orthogonalLoop=1;jettySize=auto;html=1;endArrow=none;endFill=0;exitX=0.5;exitY=1;exitDx=0;exitDy=0;entryX=0.5;entryY=0;entryDx=0;entryDy=0;" edge="1" parent="1" source="m62q8-EZePNYTG0ktoij-147" target="m62q8-EZePNYTG0ktoij-133">
          <mxGeometry relative="1" as="geometry">
            <mxPoint x="700" y="-519" as="sourcePoint" />
            <mxPoint x="650" y="-450" as="targetPoint" />
            <Array as="points">
              <mxPoint x="610" y="-480" />
              <mxPoint x="646" y="-480" />
              <mxPoint x="646" y="-450" />
            </Array>
          </mxGeometry>
        </mxCell>
        <mxCell id="m62q8-EZePNYTG0ktoij-191" value="" style="edgeStyle=orthogonalEdgeStyle;rounded=0;orthogonalLoop=1;jettySize=auto;html=1;entryX=0.5;entryY=0;entryDx=0;entryDy=0;endArrow=none;endFill=0;exitX=0.5;exitY=1;exitDx=0;exitDy=0;" edge="1" parent="1" source="m62q8-EZePNYTG0ktoij-144" target="m62q8-EZePNYTG0ktoij-133">
          <mxGeometry relative="1" as="geometry">
            <mxPoint x="724" y="-513.25" as="sourcePoint" />
            <mxPoint x="1086" y="-418.75" as="targetPoint" />
            <Array as="points">
              <mxPoint x="750" y="-480" />
              <mxPoint x="646" y="-480" />
            </Array>
          </mxGeometry>
        </mxCell>
        <mxCell id="m62q8-EZePNYTG0ktoij-194" value="" style="edgeStyle=orthogonalEdgeStyle;rounded=0;orthogonalLoop=1;jettySize=auto;html=1;entryX=0.5;entryY=0;entryDx=0;entryDy=0;endArrow=none;endFill=0;exitX=0.5;exitY=1;exitDx=0;exitDy=0;" edge="1" parent="1" source="kG2L2xWDp4zw-5RFXqIC-112" target="m62q8-EZePNYTG0ktoij-133">
          <mxGeometry relative="1" as="geometry">
            <mxPoint x="760" y="-517" as="sourcePoint" />
            <mxPoint x="656" y="-440" as="targetPoint" />
            <Array as="points">
              <mxPoint x="900" y="-480" />
              <mxPoint x="646" y="-480" />
            </Array>
          </mxGeometry>
        </mxCell>
        <mxCell id="m62q8-EZePNYTG0ktoij-195" value="" style="edgeStyle=orthogonalEdgeStyle;rounded=0;orthogonalLoop=1;jettySize=auto;html=1;entryX=0.5;entryY=0;entryDx=0;entryDy=0;endArrow=none;endFill=0;exitX=0.5;exitY=1;exitDx=0;exitDy=0;" edge="1" parent="1" source="m62q8-EZePNYTG0ktoij-142" target="m62q8-EZePNYTG0ktoij-133">
          <mxGeometry relative="1" as="geometry">
            <mxPoint x="776" y="-511" as="sourcePoint" />
            <mxPoint x="662" y="-444" as="targetPoint" />
            <Array as="points">
              <mxPoint x="1060" y="-480" />
              <mxPoint x="646" y="-480" />
            </Array>
          </mxGeometry>
        </mxCell>
        <mxCell id="m62q8-EZePNYTG0ktoij-197" value="" style="edgeStyle=orthogonalEdgeStyle;rounded=0;orthogonalLoop=1;jettySize=auto;html=1;entryX=0.5;entryY=0;entryDx=0;entryDy=0;endArrow=none;endFill=0;exitX=0.5;exitY=1;exitDx=0;exitDy=0;" edge="1" parent="1" source="kG2L2xWDp4zw-5RFXqIC-118" target="m62q8-EZePNYTG0ktoij-133">
          <mxGeometry relative="1" as="geometry">
            <mxPoint x="1107" y="-519" as="sourcePoint" />
            <mxPoint x="693" y="-437" as="targetPoint" />
            <Array as="points">
              <mxPoint x="1190" y="-530" />
              <mxPoint x="1190" y="-480" />
              <mxPoint x="650" y="-480" />
              <mxPoint x="650" y="-450" />
            </Array>
          </mxGeometry>
        </mxCell>
        <mxCell id="m62q8-EZePNYTG0ktoij-199" value="" style="edgeStyle=orthogonalEdgeStyle;rounded=0;orthogonalLoop=1;jettySize=auto;html=1;endArrow=none;endFill=0;exitX=0.583;exitY=1.104;exitDx=0;exitDy=0;exitPerimeter=0;entryX=0.5;entryY=0;entryDx=0;entryDy=0;" edge="1" parent="1" source="kG2L2xWDp4zw-5RFXqIC-114" target="m62q8-EZePNYTG0ktoij-133">
          <mxGeometry relative="1" as="geometry">
            <mxPoint x="1909" y="-470" as="sourcePoint" />
            <mxPoint x="1030" y="-460" as="targetPoint" />
            <Array as="points">
              <mxPoint x="1877" y="-480" />
              <mxPoint x="646" y="-480" />
            </Array>
          </mxGeometry>
        </mxCell>
        <mxCell id="m62q8-EZePNYTG0ktoij-200" value="" style="edgeStyle=orthogonalEdgeStyle;rounded=0;orthogonalLoop=1;jettySize=auto;html=1;endArrow=none;endFill=0;exitX=0.5;exitY=1;exitDx=0;exitDy=0;entryX=0.5;entryY=0;entryDx=0;entryDy=0;" edge="1" parent="1" source="kG2L2xWDp4zw-5RFXqIC-119" target="m62q8-EZePNYTG0ktoij-133">
          <mxGeometry relative="1" as="geometry">
            <mxPoint x="1887" y="-505" as="sourcePoint" />
            <mxPoint x="950" y="-450" as="targetPoint" />
            <Array as="points">
              <mxPoint x="1746" y="-480" />
              <mxPoint x="646" y="-480" />
            </Array>
          </mxGeometry>
        </mxCell>
        <mxCell id="m62q8-EZePNYTG0ktoij-201" value="" style="edgeStyle=orthogonalEdgeStyle;rounded=0;orthogonalLoop=1;jettySize=auto;html=1;entryX=0.5;entryY=0;entryDx=0;entryDy=0;endArrow=none;endFill=0;exitX=0.5;exitY=1;exitDx=0;exitDy=0;" edge="1" parent="1" source="m62q8-EZePNYTG0ktoij-148" target="m62q8-EZePNYTG0ktoij-133">
          <mxGeometry relative="1" as="geometry">
            <mxPoint x="1630" y="-499" as="sourcePoint" />
            <mxPoint x="1260" y="-354" as="targetPoint" />
            <Array as="points">
              <mxPoint x="1595" y="-480" />
              <mxPoint x="646" y="-480" />
            </Array>
          </mxGeometry>
        </mxCell>
        <mxCell id="m62q8-EZePNYTG0ktoij-202" value="" style="edgeStyle=orthogonalEdgeStyle;rounded=0;orthogonalLoop=1;jettySize=auto;html=1;endArrow=none;endFill=0;exitX=0.5;exitY=1;exitDx=0;exitDy=0;entryX=0.5;entryY=0;entryDx=0;entryDy=0;" edge="1" parent="1" source="m62q8-EZePNYTG0ktoij-146" target="m62q8-EZePNYTG0ktoij-133">
          <mxGeometry relative="1" as="geometry">
            <mxPoint x="1475" y="-509" as="sourcePoint" />
            <mxPoint x="1105" y="-364" as="targetPoint" />
            <Array as="points">
              <mxPoint x="1460" y="-480" />
              <mxPoint x="646" y="-480" />
            </Array>
          </mxGeometry>
        </mxCell>
        <mxCell id="m62q8-EZePNYTG0ktoij-204" value="" style="edgeStyle=orthogonalEdgeStyle;rounded=0;orthogonalLoop=1;jettySize=auto;html=1;endArrow=none;endFill=0;exitX=0.5;exitY=1;exitDx=0;exitDy=0;" edge="1" parent="1" source="m62q8-EZePNYTG0ktoij-145">
          <mxGeometry relative="1" as="geometry">
            <mxPoint x="1260" y="-470" as="sourcePoint" />
            <mxPoint x="650" y="-450" as="targetPoint" />
            <Array as="points">
              <mxPoint x="1320" y="-532" />
              <mxPoint x="1320" y="-480" />
              <mxPoint x="650" y="-480" />
            </Array>
          </mxGeometry>
        </mxCell>
        <mxCell id="m62q8-EZePNYTG0ktoij-208" value="" style="edgeStyle=orthogonalEdgeStyle;rounded=0;orthogonalLoop=1;jettySize=auto;html=1;entryX=0.5;entryY=0;entryDx=0;entryDy=0;endArrow=none;endFill=0;exitX=0.5;exitY=1;exitDx=0;exitDy=0;" edge="1" parent="1" source="m62q8-EZePNYTG0ktoij-151" target="m62q8-EZePNYTG0ktoij-160">
          <mxGeometry relative="1" as="geometry">
            <mxPoint x="1086" y="-400" as="sourcePoint" />
            <mxPoint x="950" y="-336" as="targetPoint" />
            <Array as="points">
              <mxPoint x="981" y="-360" />
              <mxPoint x="945" y="-360" />
            </Array>
          </mxGeometry>
        </mxCell>
        <mxCell id="m62q8-EZePNYTG0ktoij-210" value="" style="edgeStyle=orthogonalEdgeStyle;rounded=0;orthogonalLoop=1;jettySize=auto;html=1;entryX=0.5;entryY=0;entryDx=0;entryDy=0;endArrow=none;endFill=0;exitX=0.5;exitY=1;exitDx=0;exitDy=0;" edge="1" parent="1" source="m62q8-EZePNYTG0ktoij-151" target="m62q8-EZePNYTG0ktoij-154">
          <mxGeometry relative="1" as="geometry">
            <mxPoint x="1115.5" y="-400" as="sourcePoint" />
            <mxPoint x="974.5" y="-330" as="targetPoint" />
            <Array as="points">
              <mxPoint x="981" y="-360" />
              <mxPoint x="1045" y="-360" />
            </Array>
          </mxGeometry>
        </mxCell>
        <mxCell id="m62q8-EZePNYTG0ktoij-211" value="" style="edgeStyle=orthogonalEdgeStyle;rounded=0;orthogonalLoop=1;jettySize=auto;html=1;entryX=0.5;entryY=0;entryDx=0;entryDy=0;endArrow=none;endFill=0;exitX=0.5;exitY=0;exitDx=0;exitDy=0;" edge="1" parent="1" source="m62q8-EZePNYTG0ktoij-133" target="m62q8-EZePNYTG0ktoij-151">
          <mxGeometry relative="1" as="geometry">
            <mxPoint x="812" y="-443" as="sourcePoint" />
            <mxPoint x="776" y="-379" as="targetPoint" />
            <Array as="points">
              <mxPoint x="646" y="-480" />
              <mxPoint x="981" y="-480" />
            </Array>
          </mxGeometry>
        </mxCell>
        <mxCell id="m62q8-EZePNYTG0ktoij-212" value="" style="edgeStyle=orthogonalEdgeStyle;rounded=0;orthogonalLoop=1;jettySize=auto;html=1;endArrow=none;endFill=0;exitX=0.5;exitY=0;exitDx=0;exitDy=0;entryX=0.5;entryY=0;entryDx=0;entryDy=0;" edge="1" parent="1" source="m62q8-EZePNYTG0ktoij-133" target="m62q8-EZePNYTG0ktoij-156">
          <mxGeometry relative="1" as="geometry">
            <mxPoint x="925" y="-451" as="sourcePoint" />
            <mxPoint x="1300" y="-455" as="targetPoint" />
            <Array as="points">
              <mxPoint x="646" y="-481" />
              <mxPoint x="1305" y="-481" />
            </Array>
          </mxGeometry>
        </mxCell>
        <mxCell id="m62q8-EZePNYTG0ktoij-216" value="&lt;u style=&quot;font-size: 16px;&quot;&gt;UID&lt;/u&gt;" style="ellipse;whiteSpace=wrap;html=1;rounded=0;fontSize=16;" vertex="1" parent="1">
          <mxGeometry x="1090" y="420" width="150" height="40" as="geometry" />
        </mxCell>
        <mxCell id="m62q8-EZePNYTG0ktoij-217" value="" style="edgeStyle=orthogonalEdgeStyle;rounded=0;orthogonalLoop=1;jettySize=auto;html=1;endArrow=none;endFill=0;entryX=1;entryY=0.5;entryDx=0;entryDy=0;exitX=0;exitY=0.5;exitDx=0;exitDy=0;" edge="1" parent="1" source="m62q8-EZePNYTG0ktoij-216" target="m62q8-EZePNYTG0ktoij-3">
          <mxGeometry relative="1" as="geometry">
            <mxPoint x="1143.47" y="581.5" as="sourcePoint" />
            <mxPoint x="925.47" y="571.5" as="targetPoint" />
            <Array as="points">
              <mxPoint x="936" y="440" />
            </Array>
          </mxGeometry>
        </mxCell>
        <mxCell id="m62q8-EZePNYTG0ktoij-218" value="" style="edgeStyle=orthogonalEdgeStyle;rounded=0;orthogonalLoop=1;jettySize=auto;html=1;endArrow=none;endFill=0;entryX=0.5;entryY=0;entryDx=0;entryDy=0;exitX=0;exitY=0.5;exitDx=0;exitDy=0;" edge="1" parent="1" source="m62q8-EZePNYTG0ktoij-3" target="NiUCZ3gXmQGHFYubytSW-13">
          <mxGeometry relative="1" as="geometry">
            <mxPoint x="670" y="335" as="sourcePoint" />
            <mxPoint x="591" y="515" as="targetPoint" />
            <Array as="points">
              <mxPoint x="590" y="370" />
              <mxPoint x="590" y="441" />
              <mxPoint x="591" y="441" />
              <mxPoint x="591" y="540" />
            </Array>
          </mxGeometry>
        </mxCell>
        <mxCell id="m62q8-EZePNYTG0ktoij-224" value="&lt;u style=&quot;font-size: 16px;&quot;&gt;UID&lt;/u&gt;" style="ellipse;whiteSpace=wrap;html=1;rounded=0;fontSize=16;" vertex="1" parent="1">
          <mxGeometry x="-6" y="495" width="150" height="40" as="geometry" />
        </mxCell>
        <mxCell id="m62q8-EZePNYTG0ktoij-225" value="" style="edgeStyle=orthogonalEdgeStyle;rounded=0;orthogonalLoop=1;jettySize=auto;html=1;endArrow=none;endFill=0;entryX=0;entryY=0.5;entryDx=0;entryDy=0;exitX=0.5;exitY=0;exitDx=0;exitDy=0;" edge="1" parent="1" source="m62q8-EZePNYTG0ktoij-224" target="NiUCZ3gXmQGHFYubytSW-4">
          <mxGeometry relative="1" as="geometry">
            <mxPoint x="47.47000000000003" y="656.5" as="sourcePoint" />
            <mxPoint x="-160" y="445" as="targetPoint" />
            <Array as="points">
              <mxPoint x="69" y="400" />
            </Array>
          </mxGeometry>
        </mxCell>
      </root>
    </mxGraphModel>
  </diagram>
</mxfile>
